<?xml version="1.0" standalone="no"?>
<!DOCTYPE svg PUBLIC "-//W3C//DTD SVG 20010904//EN"
 "http://www.w3.org/TR/2001/REC-SVG-20010904/DTD/svg10.dtd">
<svg version="1.0" xmlns="http://www.w3.org/2000/svg"
 width="72.000000pt" height="72.000000pt" viewBox="0 0 72.000000 72.000000"
 preserveAspectRatio="xMidYMid meet">
<metadata>
Created by potrace 1.11, written by Peter Selinger 2001-2013
</metadata>
<g transform="translate(0.000000,72.000000) scale(0.100000,-0.100000)"
fill="#000000" stroke="none">
<path d="M278 706 c-44 -11 -51 -29 -10 -23 31 4 62 -11 63 -33 0 -11 2 -11 6
-2 4 10 8 10 20 1 11 -10 14 -10 11 2 -2 7 -16 18 -33 24 -41 14 -33 30 13 28
20 -1 52 -3 70 -3 18 0 43 -5 57 -10 15 -6 25 -6 25 0 0 12 -99 32 -146 28
-22 -1 -56 -7 -76 -12z"/>
<path d="M179 661 c-69 -44 -155 -148 -124 -148 8 0 12 4 10 7 -8 13 66 100
85 100 6 0 10 5 10 10 0 6 6 10 13 10 15 1 62 39 55 45 -2 3 -24 -8 -49 -24z"/>
<path d="M528 663 c12 -17 22 -37 22 -44 0 -7 3 -10 6 -6 3 3 12 0 19 -6 10
-9 10 -16 2 -27 -6 -8 -7 -12 -3 -8 5 4 15 0 22 -10 7 -9 16 -13 21 -9 4 5 0
13 -10 18 -9 6 -15 14 -12 19 3 5 1 11 -5 15 -5 3 -10 11 -10 17 0 6 9 3 20
-7 11 -10 18 -21 15 -23 -3 -3 3 -15 14 -26 10 -12 21 -40 24 -64 5 -51 11
-59 32 -42 8 7 15 9 16 4 7 -56 6 -84 0 -80 -10 7 -9 -47 1 -55 7 -5 -17 -117
-27 -128 -12 -12 -16 11 -7 42 7 26 7 37 -1 40 -8 3 -12 -12 -12 -45 0 -28 -3
-52 -8 -55 -4 -2 -5 -9 -2 -14 4 -5 -4 -9 -16 -9 -19 0 -20 2 -8 17 11 15 10
14 -9 -1 -12 -11 -22 -25 -22 -31 0 -7 -12 -24 -26 -38 -14 -14 -23 -30 -20
-36 4 -5 -3 -12 -14 -16 -11 -3 -20 -11 -20 -16 0 -17 61 21 107 69 68 68 96
138 100 242 3 73 0 93 -23 147 -14 35 -30 60 -35 57 -8 -4 -10 1 -9 21 1 10
-77 79 -111 99 l-33 19 22 -30z m48 -31 c-4 -3 -14 2 -24 12 -16 18 -16 18 6
6 13 -6 21 -14 18 -18z m109 -160 c-9 -9 -25 19 -24 43 0 16 2 15 15 -8 9 -16
13 -32 9 -35z m-85 -367 c-19 -19 -39 -35 -44 -35 -6 0 7 16 28 35 51 45 60
45 16 0z"/>
<path d="M230 649 l-25 -21 24 3 c14 2 25 12 27 22 3 21 5 21 -26 -4z"/>
<path d="M438 664 c6 -3 10 -9 8 -13 -3 -4 3 -7 12 -6 29 2 24 20 -5 22 -15 1
-22 0 -15 -3z"/>
<path d="M310 615 c-10 -12 -16 -13 -28 -3 -10 9 -13 9 -9 1 4 -6 2 -13 -3
-15 -6 -2 2 -8 19 -14 24 -10 29 -9 24 2 -3 8 0 21 7 29 7 8 10 15 7 15 -2 0
-10 -7 -17 -15z"/>
<path d="M197 600 c-16 -19 -16 -20 11 -20 19 0 23 3 13 9 -7 5 -10 14 -7 20
11 18 2 13 -17 -9z"/>
<path d="M143 604 c4 -4 -3 -15 -15 -26 -18 -15 -19 -21 -8 -31 7 -6 10 -7 7
-1 -7 13 28 45 39 36 5 -4 2 1 -5 11 -7 9 -16 17 -19 17 -3 0 -2 -3 1 -6z"/>
<path d="M394 599 c-3 -5 2 -9 10 -9 9 0 18 0 21 0 3 0 6 3 8 7 3 10 -32 12
-39 2z"/>
<path d="M507 591 c7 -27 29 -33 30 -9 1 11 -1 18 -4 14 -3 -3 -12 -1 -19 5
-9 8 -11 5 -7 -10z"/>
<path d="M396 563 c-6 -14 -5 -15 5 -6 7 7 10 15 7 18 -3 3 -9 -2 -12 -12z"/>
<path d="M256 513 c-6 -14 -5 -15 5 -6 7 7 10 15 7 18 -3 3 -9 -2 -12 -12z"/>
<path d="M130 494 c0 -8 -6 -14 -12 -14 -8 0 -14 -17 -16 -42 -2 -36 -1 -39
13 -28 8 7 15 17 15 23 0 30 74 49 98 25 19 -19 14 -56 -10 -69 -18 -10 -20
-9 -14 7 6 18 5 18 -7 2 -8 -10 -16 -15 -19 -13 -3 3 -10 -1 -17 -8 -9 -12 -6
-18 15 -32 15 -9 23 -12 20 -6 -10 15 27 14 42 -1 19 -19 14 -55 -10 -72 -28
-20 -67 -21 -74 -1 -4 8 -10 12 -15 9 -5 -3 -13 6 -19 20 -14 38 -34 33 -26
-5 3 -17 6 -35 6 -40 0 -5 6 -9 14 -9 8 0 22 -10 32 -23 11 -15 15 -16 11 -4
-6 14 0 17 39 17 25 0 43 -4 40 -8 -3 -5 1 -9 9 -9 9 0 15 10 15 24 0 13 4 23
9 23 13 0 20 63 9 77 -6 7 -5 14 2 18 5 3 10 1 10 -5 0 -6 4 -9 9 -6 5 3 11
-12 15 -33 3 -21 13 -44 21 -51 8 -7 15 -19 15 -26 0 -10 11 -12 48 -8 26 3
53 7 60 10 6 2 12 -2 12 -10 0 -7 7 -13 15 -13 8 0 12 4 10 8 -3 3 5 9 18 13
14 4 18 9 11 13 -8 5 -11 49 -10 126 1 115 -2 129 -31 133 -10 2 -11 -11 -7
-48 6 -46 5 -49 -12 -40 -27 13 -88 32 -80 25 7 -7 -55 -48 -68 -45 -5 2 -6
-4 -3 -11 4 -10 -4 -17 -25 -21 -36 -7 -43 -3 -34 20 4 9 12 14 22 10 8 -3 12
-2 9 4 -7 12 -17 49 -18 71 -1 18 -37 46 -37 29 0 -5 -6 -8 -12 -5 -7 2 -30 6
-50 8 -28 4 -38 1 -38 -9z m344 -128 c11 -41 7 -78 -8 -73 -10 4 -12 0 -9 -14
5 -19 -1 -21 -42 -21 -30 0 -36 2 -30 12 3 5 0 7 -9 4 -8 -3 -19 3 -25 15 -14
25 -14 71 0 71 5 0 8 4 5 9 -7 11 13 28 39 33 31 6 73 -14 79 -36z"/>
<path d="M425 370 c-4 -6 -10 -8 -15 -5 -5 3 -12 0 -16 -7 -4 -7 -4 -10 1 -6
4 4 16 3 26 -2 14 -8 17 -6 16 10 -1 23 -3 24 -12 10z"/>
<path d="M350 490 c0 -11 5 -20 10 -20 6 0 10 5 10 11 0 5 5 7 10 4 6 -3 10
-4 10 -1 0 3 -9 10 -20 16 -17 9 -20 8 -20 -10z"/>
<path d="M59 489 c0 -8 -2 -22 -4 -31 -4 -22 -3 -22 17 1 14 17 15 21 2 32
-11 9 -14 8 -15 -2z"/>
<path d="M581 491 c-9 -6 -10 -14 -4 -25 9 -16 10 -16 24 0 12 15 12 17 0 9
-11 -6 -13 -4 -8 8 7 19 7 20 -12 8z"/>
<path d="M18 435 c-3 -14 -1 -25 3 -25 5 0 9 11 9 25 0 14 -2 25 -4 25 -2 0
-6 -11 -8 -25z"/>
<path d="M562 424 c-5 -10 -12 -23 -14 -29 -1 -5 -5 -9 -8 -8 -3 1 -5 -12 -5
-27 -1 -20 3 -26 10 -20 16 13 19 -78 4 -96 -7 -9 -8 -14 -3 -12 5 1 19 -3 31
-10 19 -11 22 -10 17 3 -4 8 -1 15 6 15 9 0 9 4 2 13 -13 15 -17 74 -8 108 7
26 56 59 56 38 0 -16 17 -2 22 19 6 23 -28 27 -59 7 -20 -13 -23 -13 -31 2 -9
15 -11 14 -20 -3z"/>
<path d="M19 387 c7 -10 9 -17 3 -17 -5 0 -9 -12 -9 -27 0 -16 2 -22 4 -15 4
10 9 8 19 -5 13 -17 14 -17 8 1 -4 10 -7 30 -8 44 -1 14 -8 28 -16 30 -13 5
-13 3 -1 -11z"/>
<path d="M81 377 c-8 -10 -7 -18 2 -31 11 -15 12 -13 13 14 2 34 1 35 -15 17z"/>
<path d="M633 365 c0 -31 13 -42 20 -15 3 10 -1 24 -8 30 -10 8 -12 4 -12 -15z"/>
<path d="M20 279 c5 -18 12 -34 16 -38 4 -3 4 2 1 12 -4 10 -7 27 -7 38 0 10
-4 19 -9 19 -6 0 -6 -12 -1 -31z"/>
<path d="M59 288 c-7 -24 -4 -41 9 -56 10 -10 13 -13 9 -6 -5 7 -2 14 5 17 9
4 7 6 -4 6 -11 1 -15 7 -11 21 3 11 3 20 -1 20 -3 0 -6 -1 -7 -2z"/>
<path d="M36 217 c3 -10 9 -15 12 -12 3 3 0 11 -7 18 -10 9 -11 8 -5 -6z"/>
<path d="M77 153 c44 -60 133 -129 133 -104 0 10 -52 51 -65 51 -10 0 -75 72
-75 82 0 4 -5 8 -11 8 -5 0 3 -17 18 -37z"/>
<path d="M109 178 c9 -13 9 -17 -1 -21 -9 -4 -8 -6 3 -6 9 -1 21 -11 27 -23 9
-19 11 -20 11 -5 1 10 -11 30 -26 45 -15 15 -21 20 -14 10z"/>
<path d="M202 158 c-16 -16 -15 -28 1 -28 7 0 13 9 13 20 0 11 -1 20 -1 20 -1
0 -6 -5 -13 -12z"/>
<path d="M513 158 c4 -11 0 -18 -11 -21 -13 -4 -13 -5 4 -6 11 0 26 -7 33 -13
10 -11 11 -9 5 7 -4 11 -15 27 -23 35 -13 13 -14 13 -8 -2z"/>
<path d="M407 133 c-3 -5 3 -16 13 -26 17 -17 17 -17 13 8 -5 24 -17 33 -26
18z"/>
<path d="M281 127 c2 -1 11 -8 20 -15 13 -9 16 -9 16 3 0 8 -9 15 -20 15 -11
0 -18 -1 -16 -3z"/>
<path d="M184 113 c3 -7 20 -22 36 -33 30 -21 30 -21 30 -1 0 14 -5 19 -15 14
-9 -3 -25 3 -37 13 -12 11 -18 14 -14 7z"/>
<path d="M455 69 l-30 -20 29 3 c19 2 30 9 32 21 1 9 2 17 1 16 -1 0 -15 -9
-32 -20z"/>
<path d="M313 56 c0 -7 13 -10 34 -8 39 5 36 15 -6 18 -15 1 -28 -3 -28 -10z"/>
<path d="M220 39 c0 -8 49 -26 90 -34 22 -4 22 -4 4 14 -10 10 -22 17 -26 14
-5 -2 -14 -1 -20 3 -17 11 -48 12 -48 3z"/>
<path d="M414 29 c-3 -6 -15 -9 -25 -6 -10 3 -22 1 -25 -4 -3 -6 -11 -5 -20 2
-12 10 -13 9 -8 -5 5 -14 16 -16 53 -12 72 7 111 18 111 28 0 6 -8 7 -17 3
-34 -13 -65 -16 -58 -5 3 5 4 10 1 10 -3 0 -8 -5 -12 -11z"/>
</g>
</svg>
